<svg width="40" height="40" viewBox="0 0 40 40" xmlns="http://www.w3.org/2000/svg" xmlns:xlink="http://www.w3.org/1999/xlink">
    <defs>
        <linearGradient x1="-8.107%" y1="-7.755%" x2="100%" y2="100%" id="c">
            <stop stop-color="#FF4D61" offset="0%"/>
            <stop stop-color="#286CE2" offset="100%"/>
        </linearGradient>
        <circle id="a" cx="20" cy="20" r="20"/>
        <path d="M19.975 4.586c.692 0 1.254.562 1.254 1.254v6.272c0 .47-.187.922-.519 1.254l-4.498 4.499v2.508h-5.018v-4.802c0-.941.374-1.843 1.04-2.508l3.978-3.98.627.628a1.773 1.773 0 0 1 0 2.509l-1.254 1.254a.444.444 0 0 0 .627.627l2.509-2.508V5.84a1.25 1.25 0 0 1 1.254-1.254zm-18.614 0A1.25 1.25 0 0 1 2.615 5.84v5.753l2.51 2.508a.444.444 0 0 0 .626-.627L4.497 12.22a1.773 1.773 0 0 1 0-2.509l.627-.627 3.979 3.979a3.544 3.544 0 0 1 1.039 2.508v4.802H5.124v-2.508L.626 13.366a1.775 1.775 0 0 1-.52-1.254V5.84c0-.692.563-1.254 1.255-1.254zm9.534.807c1.733 0 3.058.681 3.161 1.603l.006.116v1.23H7.727v-1.23c0-.98 1.361-1.72 3.168-1.72zm4.406-.738c1.397 0 2.466.555 2.557 1.307l.006.104v1.01l-3.565-.001v-.246c0-.598-.499-1.106-1.292-1.411.411-.461 1.263-.763 2.294-.763zm-9.024 0c1.031 0 1.883.302 2.294.763-.793.305-1.292.813-1.292 1.41v.247H3.714V6.067l.007-.104c.09-.752 1.159-1.307 2.556-1.307zM10.692.107a2.1 2.1 0 0 1 2.111 2.09c0 1.77-1.831 2.747-1.978 2.822l-.01.005v-.738h-.123a2.1 2.1 0 0 1-2.112-2.09 2.1 2.1 0 0 1 2.112-2.09zm4.445.21a1.71 1.71 0 0 1 1.708 1.716c0 1.444-1.465 2.245-1.598 2.314l-.01.005v-.605h-.1a1.71 1.71 0 0 1-1.708-1.714A1.71 1.71 0 0 1 15.137.318zm-8.696 0A1.71 1.71 0 0 1 8.15 2.034 1.71 1.71 0 0 1 6.44 3.747h-.1v.605l-.01-.005c-.133-.07-1.598-.87-1.598-2.314A1.71 1.71 0 0 1 6.44.318z" id="d"/>
    </defs>
    <g fill="none" fill-rule="evenodd">
        <mask id="b" fill="#fff">
            <use xlink:href="#a"/>
        </mask>
        <use fill="#000" xlink:href="#a"/>
        <g mask="url(#b)" fill="url(#c)">
            <path d="M0 0h40v40H0z"/>
        </g>
        <g mask="url(#b)">
            <g transform="translate(9.333 9.333)">
                <mask id="e" fill="#fff">
                    <use xlink:href="#d"/>
                </mask>
                <use fill="#000" xlink:href="#d"/>
                <g mask="url(#e)">
                    <path d="M0 0h21.333v20.48H0z" fill="#FFF"/>
                </g>
            </g>
        </g>
    </g>
</svg>
