<?xml version="1.0" encoding="utf-8"?>
<svg version="1.1" xmlns:xlink="http://www.w3.org/1999/xlink" width="20px" height="16px" xmlns="http://www.w3.org/2000/svg">
  <g transform="matrix(1 0 0 1 -17 -10 )">
    <path d="M 17.125154894671624 9.141075604053  C 17.133415943824865 9.157703299558326  17.13754646840149 9.182644842816316  17.13754646840149 9.215900233826968  L 17.13754646840149 15.20187061574435  C 17.13754646840149 15.418030657313587  17.059066501445685 15.605092231748506  16.902106567534076 15.763055339049103  C 16.745146633622472 15.921018446349702  16.559273027674518 16  16.34448574969021 16  L 11.586121437422552 16  L 11.586121437422552 11.211223694466096  L 8.413878562577446 11.211223694466096  L 8.413878562577446 16  L 3.655514250309789 16  C 3.4407269723254856 16  3.2548533663775303 15.921018446349702  3.097893432465923 15.763055339049103  C 2.9409334985543167 15.605092231748506  2.8624535315985127 15.418030657313587  2.8624535315985127 15.20187061574435  L 2.8624535315985127 9.215900233826968  C 2.8624535315985127 9.207586386074304  2.8645187938868237 9.19511561444531  2.868649318463445 9.178487918939984  C 2.8727798430400666 9.161860223434658  2.874845105328377 9.149389451805664  2.874845105328377 9.141075604053  L 10 3.2299298519095867  L 17.125154894671624 9.141075604053  Z M 19.987608426270135 8.062353858144974  C 19.99586947542338 8.174590802805923  19.96695580338703 8.272278513899714  19.90086741016109 8.355416991426345  L 19.132589838909542 9.278254091971942  C 19.066501445683603 9.35307872174591  18.979760429574558 9.398804884385555  18.872366790582404 9.415432579890881  L 18.83519206939281 9.415432579890881  C 18.72779843040066 9.415432579890881  18.641057414291616 9.38633411275656  18.574969021065677 9.328137178487918  L 10 2.132501948558067  L 1.4250309789343247 9.328137178487918  C 1.325898389095415 9.394647960509221  1.2267657992565058 9.423746427643543  1.127633209417596 9.415432579890881  C 1.020239570425444 9.398804884385555  0.9334985543163983 9.35307872174591  0.8674101610904584 9.278254091971942  L 0.09913258983890955 8.355416991426345  C 0.03304419661296986 8.272278513899714  0.00413052457662126 8.174590802805923  0.012391573729863693 8.062353858144974  C 0.020652622883106216 7.950116913484022  0.06608839322593972 7.860743050142894  0.1486988847583643 7.79423226812159  L 9.058240396530358 0.3242400623538586  C 9.322593969434118 0.10808002078461776  9.636513837257333 0  10 0  C 10.36348616274267 0  10.677406030565884 0.10808002078461776  10.941759603469642 0.3242400623538586  L 13.965303593556381 2.8682774746687443  L 13.965303593556381 0.4364770070148083  C 13.965303593556381 0.3200831384775249  14.002478314745971 0.22447388932190115  14.076827757125155 0.1496492595479353  C 14.151177199504337 0.07482462977396764  14.246179264766624 0.03741231488698382  14.36183395291202 0.03741231488698382  L 16.74101610904585 0.03741231488698382  C 16.856670797191246 0.03741231488698382  16.95167286245353 0.07482462977396764  17.026022304832715 0.1496492595479353  C 17.100371747211895 0.22447388932190115  17.13754646840149 0.3200831384775249  17.13754646840149 0.4364770070148083  L 17.13754646840149 5.524551831644583  L 19.851301115241636 7.79423226812159  C 19.93391160677406 7.860743050142894  19.979347377116895 7.950116913484022  19.987608426270135 8.062353858144974  Z " fill-rule="nonzero" fill="#ffffff" stroke="none" transform="matrix(1 0 0 1 17 10 )" />
  </g>
</svg>