<?xml version="1.0" encoding="UTF-8" standalone="no"?>
<!DOCTYPE svg PUBLIC "-//W3C//DTD SVG 1.1//EN" "http://www.w3.org/Graphics/SVG/1.1/DTD/svg11.dtd">
<svg width="100%" height="100%" viewBox="0 0 1418 1418" version="1.1" xmlns="http://www.w3.org/2000/svg" xmlns:xlink="http://www.w3.org/1999/xlink" xml:space="preserve" xmlns:serif="http://www.serif.com/" style="fill-rule:evenodd;clip-rule:evenodd;stroke-linejoin:round;stroke-miterlimit:1.41421;">
    <g>
        <g transform="matrix(0.745668,0,0,0.845083,40.3358,105.252)">
            <rect x="158.595" y="997.476" width="47.305" height="419.847" style="fill:rgb(130,101,71);"/>
        </g>
        <g transform="matrix(0.745668,0,0,0.845083,716.296,105.252)">
            <rect x="158.595" y="997.476" width="47.305" height="419.847" style="fill:rgb(130,101,71);"/>
        </g>
        <g>
            <g>
                <g transform="matrix(1,0,0,1,-15.9345,0.592737)">
                    <rect x="136.027" y="964.049" width="784.002" height="180.987" style="fill:rgb(250,210,67);"/>
                </g>
                <path d="M120.092,1098.6L254.05,964.642L304.16,964.642L123.173,1145.63L120.092,1145.63L120.092,1098.6ZM224.432,1145.63L174.322,1145.63L355.309,964.642L405.419,964.642L224.432,1145.63ZM325.432,1145.63L275.322,1145.63L456.309,964.642L506.419,964.642L325.432,1145.63ZM427.432,1145.63L377.322,1145.63L558.309,964.642L608.419,964.642L427.432,1145.63ZM530.432,1145.63L480.322,1145.63L661.309,964.642L711.419,964.642L530.432,1145.63ZM634.432,1145.63L584.322,1145.63L765.309,964.642L815.419,964.642L634.432,1145.63ZM904.094,978.966L737.432,1145.63L687.322,1145.63L868.309,964.642L904.094,964.642L904.094,978.966ZM904.094,1081.97L840.432,1145.63L790.322,1145.63L904.094,1031.86L904.094,1081.97ZM120.092,1056.5L120.092,1006.39L161.844,964.642L211.954,964.642L120.092,1056.5Z"/>
            </g>
            <g transform="matrix(1,0,0,1,-0.0386146,-3.73309)">
                <ellipse cx="176.271" cy="989.131" rx="6.617" ry="6.532" style="fill:rgb(187,196,201);"/>
            </g>
            <g transform="matrix(1,0,0,1,-0.0386146,66.004)">
                <ellipse cx="176.271" cy="989.131" rx="6.617" ry="6.532" style="fill:rgb(187,196,201);"/>
            </g>
            <g transform="matrix(1,0,0,1,-0.0386146,140.249)">
                <ellipse cx="176.271" cy="989.131" rx="6.617" ry="6.532" style="fill:rgb(187,196,201);"/>
            </g>
            <g transform="matrix(1,0,0,1,675.921,133.717)">
                <ellipse cx="176.271" cy="989.131" rx="6.617" ry="6.532" style="fill:rgb(187,196,201);"/>
            </g>
            <g transform="matrix(1,0,0,1,675.921,66.004)">
                <ellipse cx="176.271" cy="989.131" rx="6.617" ry="6.532" style="fill:rgb(187,196,201);"/>
            </g>
            <g transform="matrix(1,0,0,1,675.921,-3.73309)">
                <ellipse cx="176.271" cy="989.131" rx="6.617" ry="6.532" style="fill:rgb(187,196,201);"/>
            </g>
        </g>
    </g>
</svg>
