<?xml version="1.0" encoding="UTF-8"?>
<svg width="208px" height="50px" viewBox="0 0 208 50" version="1.1" xmlns="http://www.w3.org/2000/svg" xmlns:xlink="http://www.w3.org/1999/xlink">
    <title>Logo/Horizontal/NoTagline</title>
    <defs>
        <path d="M8.97802785,18.9272935 C10.415144,18.9272935 11.718024,18.6746138 12.8866679,18.1692542 C14.0553118,17.6638947 15.0344459,16.9295442 15.8240702,15.9662026 L15.8240702,15.9662026 L13.3604425,13.6920847 C12.239176,15.002861 10.8494373,15.6582491 9.1912264,15.6582491 C8.16471486,15.6582491 7.24875072,15.4332062 6.44333397,14.9831204 C5.63791722,14.5330345 5.01016594,13.9052832 4.56008011,13.0998665 C4.10999428,12.2944497 3.88495136,11.3784856 3.88495136,10.3519741 C3.88495136,9.32546252 4.10999428,8.40949838 4.56008011,7.60408163 C5.01016594,6.79866489 5.63791722,6.1709136 6.44333397,5.72082777 C7.24875072,5.27074194 8.16471486,5.04569903 9.1912264,5.04569903 C10.8494373,5.04569903 12.239176,5.69319092 13.3604425,6.98817471 L13.3604425,6.98817471 L15.8240702,4.71405684 C15.0344459,3.76650772 14.05926,3.0400534 12.8985123,2.53469388 C11.7377646,2.02933435 10.4388327,1.77665459 9.00171657,1.77665459 C7.29612817,1.77665459 5.76030898,2.14382987 4.39425901,2.87818043 C3.02820904,3.61253099 1.95432005,4.63114629 1.17259203,5.93402632 C0.390864009,7.23690635 0,8.7095556 0,10.3519741 C0,11.9943925 0.390864009,13.4670418 1.17259203,14.7699218 C1.95432005,16.0728018 3.02820904,17.0914171 4.39425901,17.8257677 C5.76030898,18.5601183 7.28823193,18.9272935 8.97802785,18.9272935 Z M23.759794,18.8325386 C25.1021553,18.8325386 26.3023841,18.552222 27.3604806,17.9915888 C28.4185772,17.4309556 29.2476826,16.6531757 29.8477971,15.6582491 C30.4479115,14.6633225 30.7479687,13.5341598 30.7479687,12.270761 C30.7479687,11.0073622 30.4479115,9.8781995 29.8477971,8.88327294 C29.2476826,7.88834637 28.4185772,7.11056647 27.3604806,6.54993324 C26.3023841,5.98930002 25.1021553,5.70898341 23.759794,5.70898341 C22.4174328,5.70898341 21.2132558,5.98930002 20.147263,6.54993324 C19.0812703,7.11056647 18.2482167,7.88834637 17.6481022,8.88327294 C17.0479878,9.8781995 16.7479306,11.0073622 16.7479306,12.270761 C16.7479306,13.5341598 17.0479878,14.6633225 17.6481022,15.6582491 C18.2482167,16.6531757 19.0812703,17.4309556 20.147263,17.9915888 C21.2132558,18.552222 22.4174328,18.8325386 23.759794,18.8325386 Z M23.759794,15.8003815 C22.8122449,15.8003815 22.0305169,15.4805836 21.41461,14.840988 C20.798703,14.2013923 20.4907496,13.34465 20.4907496,12.270761 C20.4907496,11.196872 20.798703,10.3401297 21.41461,9.70053405 C22.0305169,9.06093839 22.8122449,8.74114057 23.759794,8.74114057 C24.7073431,8.74114057 25.485123,9.06093839 26.0931337,9.70053405 C26.7011444,10.3401297 27.0051497,11.196872 27.0051497,12.270761 C27.0051497,13.34465 26.7011444,14.2013923 26.0931337,14.840988 C25.485123,15.4805836 24.7073431,15.8003815 23.759794,15.8003815 Z M36.907038,18.6430288 L36.907038,12.2470723 C36.907038,11.1415983 37.1597177,10.3085447 37.6650772,9.7479115 C38.1704368,9.18727828 38.8495136,8.90696166 39.7023078,8.90696166 C41.3131413,8.90696166 42.1185581,9.90978447 42.1185581,11.9154301 L42.1185581,11.9154301 L42.1185581,18.6430288 L45.8139996,18.6430288 L45.8139996,12.2470723 C45.8139996,11.1415983 46.0666794,10.3085447 46.5720389,9.7479115 C47.0773984,9.18727828 47.7643715,8.90696166 48.6329582,8.90696166 C49.40679,8.90696166 50.0029563,9.15569331 50.4214572,9.65315659 C50.839958,10.1506199 51.0492085,10.904711 51.0492085,11.9154301 L51.0492085,11.9154301 L51.0492085,18.6430288 L54.74465,18.6430288 L54.74465,11.3469006 C54.74465,9.46759489 54.2748236,8.05811558 53.3351707,7.11846271 C52.3955178,6.17880984 51.1281709,5.70898341 49.5331299,5.70898341 C48.5855808,5.70898341 47.713046,5.89059699 46.9155255,6.25382415 C46.118005,6.61705131 45.4586687,7.13030708 44.9375167,7.79359146 C44.4953271,7.11451459 43.9110051,6.5973107 43.1845508,6.24197978 C42.4580965,5.88664887 41.6447835,5.70898341 40.7446119,5.70898341 C39.9234026,5.70898341 39.1693115,5.85111577 38.4823384,6.13538051 C37.7953652,6.41964524 37.2149914,6.83024986 36.7412169,7.36719435 L36.7412169,7.36719435 L36.7412169,5.89849323 L33.2115964,5.89849323 L33.2115964,18.6430288 L36.907038,18.6430288 Z M61.7565134,18.6430288 L61.7565134,12.2470723 C61.7565134,11.1415983 62.0091932,10.3085447 62.5145527,9.7479115 C63.0199123,9.18727828 63.6989891,8.90696166 64.5517833,8.90696166 C66.1626168,8.90696166 66.9680336,9.90978447 66.9680336,11.9154301 L66.9680336,11.9154301 L66.9680336,18.6430288 L70.6634751,18.6430288 L70.6634751,12.2470723 C70.6634751,11.1415983 70.9161549,10.3085447 71.4215144,9.7479115 C71.9268739,9.18727828 72.613847,8.90696166 73.4824337,8.90696166 C74.2562655,8.90696166 74.8524318,9.15569331 75.2709327,9.65315659 C75.6894335,10.1506199 75.898684,10.904711 75.898684,11.9154301 L75.898684,11.9154301 L75.898684,18.6430288 L79.5941255,18.6430288 L79.5941255,11.3469006 C79.5941255,9.46759489 79.1242991,8.05811558 78.1846462,7.11846271 C77.2449933,6.17880984 75.9776464,5.70898341 74.3826054,5.70898341 C73.4350563,5.70898341 72.5625215,5.89059699 71.765001,6.25382415 C70.9674805,6.61705131 70.3081442,7.13030708 69.7869922,7.79359146 C69.3448026,7.11451459 68.7604806,6.5973107 68.0340263,6.24197978 C67.307572,5.88664887 66.494259,5.70898341 65.5940874,5.70898341 C64.7728781,5.70898341 64.018787,5.85111577 63.3318138,6.13538051 C62.6448407,6.41964524 62.0644669,6.83024986 61.5906924,7.36719435 L61.5906924,7.36719435 L61.5906924,5.89849323 L58.0610719,5.89849323 L58.0610719,18.6430288 L61.7565134,18.6430288 Z M88.2878886,18.8325386 C89.0775129,18.8325386 89.8118634,18.6864581 90.4909403,18.3942972 C91.1700172,18.1021362 91.7543391,17.6796872 92.2439062,17.1269502 L92.2439062,17.1269502 L92.2439062,18.6430288 L95.7498379,18.6430288 L95.7498379,5.89849323 L92.0543963,5.89849323 L92.0543963,12.1996948 C92.0543963,13.3367538 91.7859241,14.1934961 91.2489796,14.7699218 C90.7120351,15.3463475 90.0013733,15.6345604 89.1169941,15.6345604 C87.3956132,15.6345604 86.5349228,14.6080488 86.5349228,12.5550257 L86.5349228,12.5550257 L86.5349228,5.89849323 L82.8394812,5.89849323 L82.8394812,13.0998665 C82.8394812,14.9949647 83.3290483,16.4241846 84.3081823,17.3875262 C85.2873164,18.3508678 86.6138852,18.8325386 88.2878886,18.8325386 Z M102.880145,18.6430288 L102.880145,12.3418272 C102.880145,11.2047683 103.156513,10.3480259 103.70925,9.77160023 C104.261987,9.19517452 105.004234,8.90696166 105.935991,8.90696166 C106.772993,8.90696166 107.412588,9.15569331 107.854778,9.65315659 C108.296967,10.1506199 108.518062,10.904711 108.518062,11.9154301 L108.518062,11.9154301 L108.518062,18.6430288 L112.213504,18.6430288 L112.213504,11.3469006 C112.213504,9.48338737 111.727885,8.07785619 110.756647,7.13030708 C109.785409,6.18275796 108.510166,5.70898341 106.930917,5.70898341 C106.062331,5.70898341 105.26481,5.85506389 104.538356,6.14722487 C103.811902,6.43938585 103.203891,6.85393858 102.714324,7.39088308 L102.714324,7.39088308 L102.714324,5.89849323 L99.1847034,5.89849323 L99.1847034,18.6430288 L102.880145,18.6430288 Z M117.401335,4.12183864 C118.080412,4.12183864 118.633149,3.92048446 119.059546,3.51777608 C119.485943,3.11506771 119.699142,2.60576006 119.699142,1.98985314 C119.699142,1.42132367 119.485943,0.947549113 119.059546,0.568529468 C118.633149,0.189509823 118.080412,1.72306613e-13 117.401335,1.72306613e-13 C116.722258,1.72306613e-13 116.169521,0.197406065 115.743124,0.592218196 C115.316727,0.987030326 115.103529,1.47659737 115.103529,2.06091932 C115.103529,2.64524127 115.316727,3.13480832 115.743124,3.52962045 C116.169521,3.92443258 116.722258,4.12183864 117.401335,4.12183864 Z M119.249056,18.6430288 L119.249056,5.89849323 L115.553614,5.89849323 L115.553614,18.6430288 L119.249056,18.6430288 Z M127.895442,18.8325386 C128.479763,18.8325386 129.036449,18.7654206 129.565497,18.6311844 C130.094545,18.4969483 130.540683,18.2955941 130.90391,18.0271219 L130.90391,18.0271219 L129.908983,15.4213618 C129.498379,15.7372115 129.000916,15.8951364 128.416594,15.8951364 C127.911234,15.8951364 127.52037,15.7490559 127.244002,15.4568949 C126.967633,15.1647339 126.829449,14.7501812 126.829449,14.2132367 L126.829449,14.2132367 L126.829449,9.0254053 L130.003738,9.0254053 L130.003738,6.18275796 L126.829449,6.18275796 L126.829449,3.07953462 L123.134007,3.07953462 L123.134007,6.18275796 L121.167843,6.18275796 L121.167843,9.0254053 L123.134007,9.0254053 L123.134007,14.2606142 C123.134007,15.7609002 123.54856,16.8979592 124.377665,17.671791 C125.206771,18.4456227 126.379363,18.8325386 127.895442,18.8325386 Z M134.362464,23.4281518 C135.578486,23.4281518 136.616842,23.1280946 137.477532,22.5279802 C138.338222,21.9278657 139.060729,20.8934579 139.645051,19.4247568 L139.645051,19.4247568 L145.401411,5.89849323 L141.848102,5.89849323 L138.247416,14.5448789 L134.670418,5.89849323 L130.856533,5.89849323 L136.376006,18.7377837 L136.328629,18.8562274 C136.075949,19.4247568 135.791684,19.8314133 135.475834,20.0761968 C135.159985,20.3209804 134.74938,20.4433721 134.244021,20.4433721 C133.880793,20.4433721 133.513618,20.3723059 133.142495,20.2301736 C132.771371,20.0880412 132.443677,19.8906351 132.159413,19.6379554 L132.159413,19.6379554 L130.809155,22.2674042 C131.21976,22.6306313 131.748808,22.9148961 132.3963,23.1201984 C133.043792,23.3255007 133.69918,23.4281518 134.362464,23.4281518 Z" id="path-1"></path>
        <path d="M2.93558004,10.4733788 C3.49522624,10.4733788 3.9904687,10.3845461 4.42130744,10.2068806 C4.85214618,10.0292151 5.18971055,9.78270432 5.43400055,9.46734813 C5.67829056,9.15199194 5.80043556,8.78555693 5.80043556,8.36804311 C5.80043556,8.03936201 5.71826529,7.73510991 5.55392474,7.45528681 C5.38958419,7.17546371 5.11420273,6.93117371 4.72778036,6.72241679 C4.34135798,6.51365988 3.81502406,6.35598179 3.14877859,6.24938251 C2.66019858,6.16943305 2.28043866,6.07171705 2.00949884,5.9562345 C1.73855901,5.84075195 1.54756864,5.70750286 1.43652773,5.55648722 C1.32548682,5.40547158 1.26996637,5.22780612 1.26996637,5.02349084 C1.26996637,4.72145957 1.41654037,4.4705071 1.70968838,4.27063346 C2.00283638,4.07075982 2.39370039,3.970823 2.8822804,3.970823 C3.26426114,3.970823 3.60182551,4.03078509 3.89497352,4.15070928 C4.18812152,4.27063346 4.44573644,4.45940301 4.66781826,4.71701793 C4.76553427,4.8236172 4.88323763,4.88802093 5.02092836,4.91022912 C5.15861909,4.9324373 5.2807641,4.91244993 5.38736337,4.85026702 C5.51172919,4.77031757 5.58279538,4.66815993 5.60056192,4.54379411 C5.61832847,4.41942829 5.58279538,4.2995041 5.49396265,4.18402155 C5.22746446,3.83757391 4.878796,3.56219245 4.44795726,3.35787717 C4.01711852,3.15356189 3.50410951,3.05140425 2.90893022,3.05140425 C2.42923348,3.05140425 1.98951147,3.12691207 1.58976419,3.27792771 C1.19001691,3.42894335 0.870219083,3.65546681 0.630370714,3.95749809 C0.390522345,4.25952937 0.27059816,4.63706847 0.27059816,5.09011539 C0.27059816,5.5786954 0.479355074,6.00065087 0.896868902,6.35598179 C1.31438273,6.7113127 1.97174493,6.96004434 2.86895549,7.10217671 C3.56185078,7.21765926 4.05931407,7.37977899 4.36134535,7.58853591 C4.66337663,7.79729282 4.81439227,8.06157019 4.81439227,8.38136801 C4.80550899,8.70116584 4.65449335,8.97432648 4.36134535,9.20084994 C4.06819734,9.4273734 3.59294224,9.54063513 2.93558004,9.54063513 C2.50918294,9.54063513 2.12053975,9.47401059 1.76965047,9.34076149 C1.41876119,9.2075124 1.13671727,9.01652203 0.923518721,8.76779039 C0.834685992,8.67007438 0.72364508,8.61233311 0.590395986,8.59456656 C0.457146892,8.57680002 0.328339434,8.61233311 0.203973613,8.70116584 C0.088491065,8.79888184 0.021866518,8.91436439 0.00409997212,9.04761348 C-0.0136665737,9.18086258 0.0263081545,9.30078676 0.124024157,9.40738604 C0.443821982,9.76271696 0.86133581,10.0292151 1.37656564,10.2068806 C1.89179547,10.3845461 2.41146694,10.4733788 2.93558004,10.4733788 Z M8.82519,13.5780827 C8.99397218,13.5780827 9.12277964,13.475925 9.21161237,13.2716098 L9.21161237,13.2716098 L13.528883,3.78427427 C13.6621321,3.49112626 13.577741,3.28236935 13.2757097,3.15800353 C12.9825617,3.03363771 12.7693632,3.11358716 12.6361141,3.3978519 L12.6361141,3.3978519 L10.1561825,8.86491751 L7.5593236,3.38452699 C7.51268642,3.28459017 7.45105871,3.21088676 7.37444049,3.16341677 L7.29282542,3.12469126 C7.17734287,3.08471653 7.05297705,3.09582062 6.91972795,3.15800353 C6.78647886,3.22018644 6.69764613,3.30901917 6.65322976,3.42450172 C6.6088134,3.53998426 6.61769667,3.66435009 6.67987958,3.79759918 L6.67987958,3.79759918 L9.65133438,9.95370732 L9.65133438,9.95370732 L9.65720292,9.9638971 L8.33216835,12.8851874 C8.21372471,13.1457634 8.26724369,13.3431695 8.49272528,13.4774056 L8.58534163,13.524783 C8.67417436,13.5603161 8.75412381,13.5780827 8.82519,13.5780827 Z M18.1926013,10.4733788 C18.8854966,10.4733788 19.5095465,10.3134799 20.0647511,9.99368205 C20.6199556,9.67388423 21.0596776,9.23638303 21.3839171,8.68117848 C21.7081566,8.12597392 21.8791596,7.50192399 21.8969261,6.8090287 L21.8969261,6.8090287 L21.8969261,0.519671467 C21.8969261,0.359772554 21.8480681,0.233185915 21.7503521,0.139911549 C21.6526361,0.0466371829 21.5282703,0 21.3772547,0 C21.226239,0 21.1018732,0.0466371829 21.0041572,0.139911549 C20.9064412,0.233185915 20.8575832,0.359772554 20.8575832,0.519671467 L20.8575832,0.519671467 L20.8575832,4.43719483 C20.5644352,4.019681 20.1780128,3.68433745 19.6983161,3.43116417 C19.2186193,3.17799089 18.6811813,3.05140425 18.086002,3.05140425 C17.40199,3.05140425 16.7890442,3.21352398 16.2471645,3.53776345 C15.7052849,3.86200291 15.276667,4.30394574 14.9613108,4.86359193 C14.6459546,5.42323813 14.4882765,6.05395051 14.4882765,6.75572907 C14.4882765,7.4663909 14.6503962,8.10154492 14.9746357,8.66119111 C15.2988751,9.22083731 15.740818,9.66278014 16.3004642,9.9870196 C16.8601104,10.3112591 17.4908227,10.4733788 18.1926013,10.4733788 Z M18.1926013,9.54063513 C17.6862547,9.54063513 17.2287662,9.41849013 16.8201356,9.17420012 C16.4115051,8.92991012 16.0872656,8.5990082 15.8474173,8.18149437 C15.6075689,7.76398055 15.4876447,7.28872544 15.4876447,6.75572907 C15.4876447,6.23161596 15.6075689,5.75858168 15.8474173,5.33662622 C16.0872656,4.91467075 16.4115051,4.58376883 16.8201356,4.34392047 C17.2287662,4.1040721 17.6862547,3.98414791 18.1926013,3.98414791 C18.7078311,3.98414791 19.1675405,4.1040721 19.5717294,4.34392047 C19.9759183,4.58376883 20.2957162,4.91467075 20.5311229,5.33662622 C20.7665296,5.75858168 20.884233,6.23161596 20.884233,6.75572907 C20.884233,7.28872544 20.7665296,7.76398055 20.5311229,8.18149437 C20.2957162,8.5990082 19.9759183,8.92991012 19.5717294,9.17420012 C19.1675405,9.41849013 18.7078311,9.54063513 18.1926013,9.54063513 Z M30.5447923,10.4067542 C30.6869247,10.4067542 30.8068489,10.3578962 30.9045649,10.2601802 C31.0022809,10.1624642 31.0511389,10.0425401 31.0511389,9.90040769 L31.0511389,9.90040769 L31.0511389,6.43593124 C31.0511389,5.70750286 30.9067857,5.09011539 30.6180793,4.58376883 C30.329373,4.07742228 29.9362881,3.69322072 29.4388248,3.43116417 C28.9413616,3.16910762 28.3772737,3.03807934 27.7465613,3.03807934 C27.1691486,3.03807934 26.6450355,3.16466598 26.174222,3.41783926 C25.9051858,3.56250971 25.6666064,3.73763709 25.458484,3.9432214 L25.3204682,4.0894073 L25.3214278,3.63770027 C25.3214278,3.50978114 25.29158,3.40318186 25.2318844,3.31790244 L25.1815163,3.25794035 C25.0882419,3.16466598 24.9660969,3.1180288 24.8150813,3.1180288 C24.6551824,3.1180288 24.5285957,3.16466598 24.4353214,3.25794035 C24.342047,3.35121471 24.2954098,3.47780135 24.2954098,3.63770027 L24.2954098,3.63770027 L24.2954098,9.90040769 C24.2954098,10.0514233 24.342047,10.1735683 24.4353214,10.2668427 C24.5285957,10.3601171 24.6551824,10.4067542 24.8150813,10.4067542 C24.9660969,10.4067542 25.0882419,10.3601171 25.1815163,10.2668427 C25.2747907,10.1735683 25.3214278,10.0514233 25.3214278,9.90040769 L25.3214278,9.90040769 L25.3204682,5.95675424 L25.329941,5.773017 C25.3526427,5.53316863 25.4207478,5.31108681 25.5342563,5.10677153 L25.6279008,4.9568663 C25.832216,4.66371829 26.1098183,4.43275319 26.4607076,4.26397101 C26.8115969,4.09518882 27.2046817,4.01079773 27.6399621,4.01079773 C28.093009,4.01079773 28.4994187,4.09963046 28.8591913,4.27729592 C29.2189638,4.45496138 29.5032286,4.72145957 29.7119855,5.07679048 C29.9207424,5.4321214 30.0251209,5.88516832 30.0251209,6.43593124 L30.0251209,6.43593124 L30.0251209,9.90040769 C30.0251209,10.0425401 30.0739789,10.1624642 30.1716949,10.2601802 C30.2694109,10.3578962 30.3937767,10.4067542 30.5447923,10.4067542 Z M36.620951,10.4733788 C37.0384648,10.4733788 37.4737452,10.3912085 37.9267921,10.226868 C38.3798391,10.0625274 38.7529365,9.85599132 39.0460845,9.60725968 C39.1526838,9.51842695 39.2037626,9.41182767 39.199321,9.28746185 C39.1948793,9.16309603 39.1349173,9.04761348 39.0194347,8.94101421 C38.930602,8.86994803 38.8240027,8.83663575 38.6996369,8.84107739 C38.5752711,8.84551903 38.4642301,8.88771457 38.3665141,8.96766403 C38.1710821,9.13644621 37.9112464,9.27635776 37.5870069,9.38739867 C37.2627675,9.49843959 36.9407488,9.55396004 36.620951,9.55396004 C36.0879546,9.55396004 35.6171412,9.43403586 35.2085106,9.19418749 C34.7998801,8.95433912 34.4778614,8.62565802 34.2424547,8.20814419 C34.074307,7.90992003 33.9662121,7.57996989 33.9181699,7.21829378 L33.9061825,7.10267261 L39.2859329,7.10217671 C39.3925322,7.10217671 39.4841409,7.07844172 39.5607591,7.03097173 L39.6323805,6.97559007 C39.7212133,6.89119898 39.7656296,6.77793725 39.7656296,6.63580488 C39.7656296,5.94290959 39.6279389,5.32552212 39.3525574,4.78364248 C39.077176,4.24176283 38.6885328,3.81758654 38.1866279,3.51111363 C37.6847229,3.20464071 37.0962061,3.05140425 36.4210774,3.05140425 C35.7370654,3.05140425 35.1330028,3.21130317 34.6088897,3.53110099 C34.0847766,3.85089882 33.6739252,4.28840001 33.3763356,4.84360457 C33.0787459,5.39880913 32.9299511,6.0406256 32.9299511,6.76905398 C32.9299511,7.48859908 33.0876292,8.12819474 33.4029854,8.68784093 C33.7183416,9.24748713 34.153622,9.68498832 34.7088265,10.0003445 C35.2640311,10.3157007 35.9014059,10.4733788 36.620951,10.4733788 Z M38.8010805,6.24961139 L33.9245499,6.24961139 L33.9468592,6.10539191 C33.9852024,5.89518466 34.042717,5.69599086 34.1194032,5.50781051 L34.20248,5.32330131 C34.4112369,4.90134584 34.7066057,4.57044393 35.0885864,4.33059556 C35.4705672,4.09074719 35.9147308,3.970823 36.4210774,3.970823 C36.9185407,3.970823 37.3471586,4.08630555 37.7069311,4.31727065 C38.0667037,4.54823574 38.344306,4.86803357 38.539738,5.27666412 C38.670026,5.54908449 38.7549106,5.84519359 38.7943918,6.16499142 L38.8010805,6.24961139 Z M42.7504093,13.5780827 C42.9191915,13.5780827 43.047999,13.475925 43.1368317,13.2716098 L43.1368317,13.2716098 L47.4541024,3.78427427 C47.5873515,3.49112626 47.5029604,3.28236935 47.2009291,3.15800353 C46.9077811,3.03363771 46.6945825,3.11358716 46.5613334,3.3978519 L46.5613334,3.3978519 L44.0816927,8.86491751 L41.4845429,3.38452699 C41.4379058,3.28459017 41.3762781,3.21088676 41.2996598,3.16341677 L41.2180448,3.12469126 C41.1025622,3.08471653 40.9781964,3.09582062 40.8449473,3.15800353 C40.7116982,3.22018644 40.6228655,3.30901917 40.5784491,3.42450172 C40.5340327,3.53998426 40.542916,3.66435009 40.6050989,3.79759918 L40.6050989,3.79759918 L43.5765537,9.95370732 L43.5765537,9.95370732 L43.5816927,9.96491751 L42.2573877,12.8851874 C42.138944,13.1457634 42.192463,13.3431695 42.4179446,13.4774056 L42.510561,13.524783 C42.5993937,13.5603161 42.6793432,13.5780827 42.7504093,13.5780827 Z" id="path-3"></path>
        <path d="M48.9903556,11.0442755 C50.697682,11.0442729 52.0833344,12.4299284 52.0833333,14.1372533 L52.0833333,14.1372533 L52.0833092,29.6021661 C52.0833059,30.7620361 51.622258,31.8755105 50.8026163,32.6951522 L50.8026163,32.6951522 L39.7113568,43.7864117 L39.7113472,49.9723768 L27.3394169,49.9723961 L27.3394354,38.1320722 C27.3378925,35.8107888 28.2599914,33.5869329 29.9008212,31.9461031 L29.9008212,31.9461031 L39.7113906,22.1355337 L41.2578795,23.6820226 C42.9667497,25.3908928 42.9667454,28.1591122 41.2578698,29.8679877 L41.2578698,29.8679877 L38.1648824,32.9609751 C37.7380502,33.3878074 37.7380491,34.0806355 38.16488,34.5074664 C38.5917109,34.9342973 39.284539,34.9342962 39.7113713,34.507464 L39.7113713,34.507464 L45.8973461,28.3214892 L45.8973682,14.1372629 C45.8973695,13.2836028 46.2436874,12.5102592 46.8035196,11.9504269 C47.3633503,11.3905962 48.1366939,11.0442784 48.9903556,11.0442755 Z M3.09297774,11.0442755 C3.94663939,11.0442784 4.719983,11.3905962 5.27981371,11.9504269 C5.83964598,12.5102592 6.1859638,13.2836028 6.18596513,14.1372629 L6.18598725,28.3214892 L12.371962,34.507464 C12.7987943,34.9342962 13.4916224,34.9342973 13.9184533,34.5074664 C14.3452842,34.0806355 14.3452832,33.3878074 13.9184509,32.9609751 L10.8254635,29.8679877 C9.11658798,28.1591122 9.11658366,25.3908928 10.8254539,23.6820226 L12.3719427,22.1355337 L22.1825121,31.9461031 C23.8233419,33.5869329 24.7454408,35.8107888 24.743898,38.1320722 L24.7439164,49.9723961 L12.3719861,49.9723768 L12.3719765,43.7864117 L1.28071703,32.6951522 C0.461075374,31.8755105 2.74708021e-05,30.7620361 2.41156357e-05,29.6021661 L-3.05533376e-13,14.1372533 C-1.11587283e-06,12.4299284 1.38565137,11.0442729 3.09297774,11.0442755 Z M26.6004536,13.0337914 C30.954044,13.0337914 34.2615991,14.7769248 34.4064516,17.1139602 L34.4114022,17.2742104 L34.4114022,20.3084657 L18.7895055,20.3084657 L18.7895055,17.2742104 C18.7895055,14.8558523 22.1466154,13.0337914 26.6004536,13.0337914 Z M37.4658497,11.2151228 C40.9753857,11.2151228 43.6446353,12.6354018 43.7792125,14.5428572 L43.7845402,14.694441 L43.7845402,17.1840864 L34.9952394,17.1831228 L34.9958165,16.5750065 C34.9958165,15.1011935 33.7642682,13.8482733 31.8076843,13.0951837 C32.8222005,11.9597661 34.923076,11.2151228 37.4658497,11.2151228 Z M15.2143281,11.2151228 C17.7571019,11.2151228 19.8579774,11.9597661 20.8724935,13.0951837 C18.9159097,13.8482733 17.6843613,15.1011935 17.6843613,16.5750065 L17.6843613,16.5750065 L17.6849385,17.1831228 L8.89563763,17.1840864 L8.89563763,14.694441 L8.90096533,14.5428572 C9.03554254,12.6354018 11.7047922,11.2151228 15.2143281,11.2151228 Z M26.0997521,0 C28.9786022,0 31.307051,2.30412173 31.307051,5.15289428 C31.307051,9.49289882 26.841482,11.8996286 26.4355212,12.1094553 L26.4060638,12.1244571 L26.4060638,10.3057886 L26.0997521,10.3057886 C23.220902,10.3057886 20.8924532,8.00166683 20.8924532,5.15289428 C20.8924532,2.30412173 23.220902,0 26.0997521,0 Z M37.0608058,0.52072989 C39.3896602,0.52072989 41.2732659,2.41129131 41.2732659,4.74874571 C41.2732659,8.38117416 37.5145187,10.3630781 37.3166899,10.4648733 L37.3085975,10.4690024 L37.3085975,8.97676153 L37.0608058,8.97676153 C34.7319513,8.97676153 32.8483456,7.08620011 32.8483456,4.74874571 C32.8483456,2.41129131 34.7319513,0.52072989 37.0608058,0.52072989 Z M15.6193721,0.52072989 C17.9482266,0.52072989 19.8318323,2.41129131 19.8318323,4.74874571 C19.8318323,7.08620011 17.9482266,8.97676153 15.6193721,8.97676153 L15.6193721,8.97676153 L15.3715803,8.97676153 L15.3715803,10.4690024 C15.1656592,10.3630781 11.406912,8.38117416 11.406912,4.74874571 C11.406912,2.41129131 13.2905176,0.52072989 15.6193721,0.52072989 Z" id="path-5"></path>
        <linearGradient x1="-19.1964566%" y1="-15.3893726%" x2="100%" y2="96.08%" id="linearGradient-7">
            <stop stop-color="#FF4D61" offset="0%"></stop>
            <stop stop-color="#286CE2" offset="100%"></stop>
        </linearGradient>
    </defs>
    <g id="Logo/Horizontal/NoTagline" stroke="none" stroke-width="1" fill="none" fill-rule="evenodd">
        <g id="outlined-text" transform="translate(62.000000, 7.000000)">
            <g id="Community-Color" transform="translate(0.000000, 16.000000)">
                <mask id="mask-2" fill="white">
                    <use xlink:href="#path-1"></use>
                </mask>
                <use id="Mask" fill="#000000" fill-rule="nonzero" xlink:href="#path-1"></use>
                <g id="Group" mask="url(#mask-2)">
                    <g transform="translate(0.000000, 0.000000)" id="Community-Color">
                        <g transform="translate(0.000000, 0.000000)">
                            <rect id="333333" fill="#333333" x="0" y="0" width="145.4" height="23.43"></rect>
                        </g>
                    </g>
                </g>
            </g>
            <g id="HR-Color" transform="translate(50.000000, 7.000000)" fill="#CCCCCC">
                <rect id="CCCCCCC" x="0" y="0" width="96" height="1"></rect>
            </g>
            <g id="Sydney">
                <mask id="mask-4" fill="white">
                    <use xlink:href="#path-3"></use>
                </mask>
                <use id="Mask" fill="#333333" fill-rule="nonzero" xlink:href="#path-3"></use>
                <g id="Group" mask="url(#mask-4)">
                    <g transform="translate(-0.000000, -0.000000)" id="Syndey-Color">
                        <g transform="translate(-0.000000, -0.000000)">
                            <rect id="333333" fill="#333333" x="0" y="0" width="47.52" height="13.58"></rect>
                        </g>
                    </g>
                </g>
            </g>
        </g>
        <g id="Logo/MarkOnly/Sydcom/Gradient">
            <mask id="mask-6" fill="white">
                <use xlink:href="#path-5"></use>
            </mask>
            <use id="Mask" fill="#000000" xlink:href="#path-5"></use>
            <g id="Group" mask="url(#mask-6)" fill="url(#linearGradient-7)">
                <g id="Color/Gradient/#FF4D61-to-#286CE2">
                    <rect id="FF4D61-to-286CE2" x="0" y="0" width="52.0833333" height="50"></rect>
                </g>
            </g>
        </g>
    </g>
</svg>