<svg width="96" height="96" xmlns="http://www.w3.org/2000/svg" xmlns:xlink="http://www.w3.org/1999/xlink">
    <defs>
        <path d="M57.6 19.079c0 2.376-.417 4.993-1.004 7.501l-.372 1.49c-.064.245-.13.488-.197.73l-.41 1.418c-.07.232-.14.46-.211.686l-.424 1.312-.418 1.219-.589 1.618-.655 1.678-.52 1.243h33.6c5.098 0 9.3 3.833 9.585 8.62l.015.516v4.3c0 1.605-.306 3.195-.899 4.692l-.32.74-14.41 30.86c-1.364 2.92-4.312 4.86-7.632 5.067l-.589.018H33.6c-5.121 0-9.303-3.811-9.585-8.617L24 83.652V41.48a8.85 8.85 0 0 1 2.05-5.642l.416-.469 13.012-13.757L43.2 6l.644.05.466.054.568.081 1.018.184.768.171c.266.065.542.137.825.218l.868.268C52.49 8.404 57.6 11.617 57.6 19.079zM14.4 37.974v54.813H0V37.974h14.4zM48 26.385c.447-1.769-4.553 3.288-15 15.171v42.096l.203.08c.047.015.103.028.17.039l.227.016h38.613c.03.002.04.01.032.04L86.634 53.02c.182-.39.297-.795.343-1.202L87 51.41v-4.3l-.023.004-.19-.078a1.156 1.156 0 0 0-.168-.043l-.219-.019H38.966l5.744-12.967c1.746-3.312 2.843-5.853 3.29-7.622z" id="a"/>
    </defs>
    <g fill="none" fill-rule="evenodd">
        <mask id="b" fill="#fff">
            <use xlink:href="#a"/>
        </mask>
        <use fill="#979797" fill-rule="nonzero" xlink:href="#a"/>
        <g mask="url(#b)" fill="#286CE2">
            <path d="M0 0h96v96H0z"/>
        </g>
    </g>
</svg>
