<svg width="96" height="96" xmlns="http://www.w3.org/2000/svg" xmlns:xlink="http://www.w3.org/1999/xlink">
    <defs>
        <path d="M44 1.98v12h8v-12h-8zM16.89 13.214l-5.656 5.657 8.485 8.484 5.656-5.656-8.484-8.485zm62.22 0L70.624 21.7l5.656 5.656 8.485-8.484-5.657-5.657zM48 21.98c-15.44 0-28 12.56-28 28 0 11.14 6.556 20.754 16 25.258V85.98c0 4.412 3.588 8 8 8h8c4.412 0 8-3.588 8-8V75.238c9.444-4.504 16-14.118 16-25.258 0-15.44-12.56-28-28-28zm-48 24v8h12v-8H0zm84 0v8h12v-8H84zM19.719 72.605l-8.485 8.484 5.657 5.657 8.484-8.485-5.656-5.656zm56.562 0-5.656 5.656 8.484 8.485 5.657-5.657-8.485-8.484z" id="a"/>
    </defs>
    <g fill="none" fill-rule="evenodd">
        <mask id="b" fill="#fff">
            <use xlink:href="#a"/>
        </mask>
        <use fill="#000" fill-rule="nonzero" xlink:href="#a"/>
        <g mask="url(#b)" fill="#511284">
            <path d="M0 0h96v96H0z"/>
        </g>
    </g>
</svg>
