<svg width="96" height="96" xmlns="http://www.w3.org/2000/svg" xmlns:xlink="http://www.w3.org/1999/xlink">
    <defs>
        <circle id="a" cx="48" cy="48" r="48"/>
        <path d="m29.686 1.5-12.432 8.86c.204.204.41.409.595.67.298.409.847 1.181 1.266 6.03l2.308-1.787-.968-1.34L32.44 5.446 29.686 1.5zM7.054 4.925c-1.219-.038-2.233.744-2.233.744L.354 23.536a7.63 7.63 0 0 0 1.043 6.7l4.094 5.807c-.912-2.112-1.08-4.485-.447-6.626l4.244-18.76.595-.521c-.14-1.806-.307-3.453-.595-3.871-.68-.959-1.498-1.322-2.234-1.34zm29.183 2.382L17.03 21.527s-.39-8.116-1.116-9.083c-1.862-2.504-4.467-.447-4.467-.447L7.352 29.939a7.502 7.502 0 0 0 1.191 6.625l5.733 7.743c3.136 4.224 9.1 5.146 13.326 2.01L48 31.204l-2.829-3.871-9.678 7.221-1.117-2.159 13.252-9.827-2.83-3.796-12.655 9.38-1.191-2.16 14.293-10.57-2.828-3.797-13.699 10.199-1.489-1.936 11.837-8.784-2.829-3.797z" id="c"/>
    </defs>
    <g fill="none" fill-rule="evenodd">
        <g>
            <mask id="b" fill="#fff">
                <use xlink:href="#a"/>
            </mask>
            <use fill="#000" xlink:href="#a"/>
            <g mask="url(#b)" fill="#108808">
                <path d="M0 0h96v96H0z"/>
            </g>
        </g>
        <g transform="translate(24 24)">
            <mask id="d" fill="#fff">
                <use xlink:href="#c"/>
            </mask>
            <use fill="#187B75" fill-rule="nonzero" xlink:href="#c"/>
            <g mask="url(#d)" fill="#FFF">
                <path d="M0 0h48v48H0z"/>
            </g>
        </g>
    </g>
</svg>
